<svg xmlns="http://www.w3.org/2000/svg" xmlns:xlink="http://www.w3.org/1999/xlink" width="331.08" height="68.012" viewBox="0 0 331.08 68.012">
  <defs>
    <linearGradient id="linear-gradient" x1="1" y1="0.5" x2="0" y2="0.5" gradientUnits="objectBoundingBox">
      <stop offset="0" stop-color="#b0285c"/>
      <stop offset="1" stop-color="#303e69"/>
    </linearGradient>
  </defs>
  <g id="Group_50" data-name="Group 50" transform="translate(-327 -2302)">
    <g id="Group_39" data-name="Group 39" transform="translate(327 2304.635)">
      <rect id="Rectangle_14" data-name="Rectangle 14" width="18.444" height="18.444" rx="9.222" transform="translate(0 42.056)" fill="#303e69"/>
      <rect id="Rectangle_16" data-name="Rectangle 16" width="18.226" height="60.753" rx="9.113" transform="translate(56.242 52.614) rotate(150)" fill="#303e69"/>
    </g>
    <path id="Path_10" data-name="Path 10" d="M1.819,41.611q-.379,0-.379-.474l.19-65.166a.335.335,0,0,1,.379-.379H20.222A18.181,18.181,0,0,1,29.9-21.8a19.221,19.221,0,0,1,6.735,6.877,18.259,18.259,0,0,1,2.466,9.3,16.03,16.03,0,0,1-1.85,7.589,18.981,18.981,0,0,1-4.411,5.691,19.729,19.729,0,0,1,4.269,6.355A19.358,19.358,0,0,1,38.624,21.6a19.592,19.592,0,0,1-2.656,10.055,20.2,20.2,0,0,1-7.162,7.257,19.079,19.079,0,0,1-10.007,2.7ZM13.012,1.772h7.209A6.786,6.786,0,0,0,25.581-.552,7.539,7.539,0,0,0,27.62-5.627a7.277,7.277,0,0,0-2.182-5.265,7.045,7.045,0,0,0-5.217-2.229H13.012Zm-.095,28.267H18.8a7.955,7.955,0,0,0,5.881-2.514A8.186,8.186,0,0,0,27.146,21.6a8.029,8.029,0,0,0-2.466-5.881A8.029,8.029,0,0,0,18.8,13.249H13.012ZM62.907,42.56a17.5,17.5,0,0,1-9.3-2.609,19.373,19.373,0,0,1-6.782-6.972,18.853,18.853,0,0,1-2.514-9.58l.19-47.428a.335.335,0,0,1,.379-.379H55.508a.335.335,0,0,1,.379.379V23.4a7.785,7.785,0,0,0,2.039,5.454,6.5,6.5,0,0,0,4.98,2.229,6.6,6.6,0,0,0,5.075-2.229A7.785,7.785,0,0,0,70.021,23.4V-24.029a.335.335,0,0,1,.379-.379H81.025a.335.335,0,0,1,.379.379l.19,47.428A19.212,19.212,0,0,1,72.345,40,17.838,17.838,0,0,1,62.907,42.56Zm43.634,0A17.592,17.592,0,0,1,97.1,39.951a19.117,19.117,0,0,1-6.687-6.972,19.506,19.506,0,0,1-2.466-9.77l.095-29.6a19.164,19.164,0,0,1,2.419-9.533,18.847,18.847,0,0,1,6.64-6.925,17.592,17.592,0,0,1,9.438-2.609,17.594,17.594,0,0,1,9.391,2.561,18.977,18.977,0,0,1,6.64,6.877,19.059,19.059,0,0,1,2.466,9.628v4.363a.335.335,0,0,1-.379.379H114.035a.335.335,0,0,1-.379-.379V-6.386a7.833,7.833,0,0,0-2.039-5.407,6.536,6.536,0,0,0-5.075-2.277,6.2,6.2,0,0,0-5.217,2.324,8.5,8.5,0,0,0-1.8,5.359v29.6a8,8,0,0,0,2.039,5.691,6.558,6.558,0,0,0,4.98,2.182,6.375,6.375,0,0,0,5.075-2.419,8.239,8.239,0,0,0,2.039-5.454V18.846a.335.335,0,0,1,.379-.379h10.719a.335.335,0,0,1,.379.379v4.363a19.217,19.217,0,0,1-2.514,9.77,19.642,19.642,0,0,1-6.687,6.972A17.352,17.352,0,0,1,106.541,42.56Zm25.9-.949q-.379,0-.379-.474l.19-65.072q0-.474.379-.474H143.25q.379,0,.379.474V-1.453l14.892-22.576a.82.82,0,0,1,.664-.379h10.908q.379,0,.19.379l-16.41,26.18,18.4,39.081q.19.379-.474.379H160.23a.508.508,0,0,1-.569-.379L146.855,13.344l-3.32,5.217V41.137q0,.474-.379.474Zm44.488,0q-.379,0-.379-.474l.095-65.166a.335.335,0,0,1,.379-.379h30.449q.379,0,.379.474V-13.31a.335.335,0,0,1-.379.379H188.023v14.8h19.446a.335.335,0,0,1,.379.379l.095,10.719a.335.335,0,0,1-.379.379h-19.54v16.6h19.54q.379,0,.379.474V41.232a.335.335,0,0,1-.379.379Zm48.946,0q-.379,0-.379-.474V-12.931H213.16a.419.419,0,0,1-.474-.474l.095-10.624a.335.335,0,0,1,.379-.379H249.2q.474,0,.474.379v10.624q0,.474-.379.474H236.874l.095,54.068q0,.474-.379.474Z" transform="translate(408.401 2327.452)" fill="url(#linear-gradient)"/>
  </g>
</svg>
